<?xml version="1.0" encoding="utf-8"?>
<!-- Generator: Adobe Illustrator 24.3.0, SVG Export Plug-In . SVG Version: 6.00 Build 0)  -->
<svg version="1.1" id="Layer_1" xmlns="http://www.w3.org/2000/svg" xmlns:xlink="http://www.w3.org/1999/xlink" x="0px" y="0px"
	 viewBox="0 0 1000 1000" style="enable-background:new 0 0 1000 1000;" xml:space="preserve">
<style type="text/css">
	.st0{fill:#FEFEFE;}
	.st1{fill:#133962;}
	.st2{fill:#707E91;}
	.st3{fill:#EC2324;}
</style>
<g>
	<g>
		<path class="st1" d="M563.27,700.43c10.77,16.75,21.18,32.92,32.38,50.35c-29.66,14.18-58.51,28.96-88.17,41.91
			c-42.32,18.48-85.16,133.54,48.98c28.97,14.15,57.59,29.04,86.36,43.6
			c0.73,0.37,1.41,0.83,2.38,1.4c-10.81,17.13-21.51,34.11-32.37,51.32c-53.49-20.7-106.92-21.5-160.2-0.77
			c-40.04,15.58-72.74,41.08-97.24,76.4c-51.67,74.5-52.67,171.07-3.04,243.93c28.62,42.01,67.05,70.97,115.61,86.02
			C467.56,721.41,515.64,718.86,563.27,700.43z"/>
		<path class="st2" d="M616.32,739.03c-10.79-16.81-20.91-32.59-31.05-48.41c71.89-43.41,112.28-105.9,112.28-190.13
			c0-84.02-40.21-146.44-112.02-189.97c10.69-16.82,21.43-33.73,32.34-50.9c16.36,9.86,32.36,19.36,48.22,29.09
			c48.85,29.97,93.39,65.7,136.94,102.74c16.67,14.18,32.42,29.2,44.46,47.72c9.65,14.84,16.46,30.82,19.34,48.31
			c3.35,20.35-2.02,38.99-12.16,56.42c-12.16,20.9-28.31,38.67-45.08,55.85c-37.37,38.27-80.48,69.23-125.55,97.6
			C661.8,711.35,639.28,724.91,616.32,739.03z"/>
		<path class="st3" d="M382,505.85c-0.59-34.37,2.44-68.48,10-102.07c3.34-14.84,10.4-27.24,26.7-30.07
			c7.63-1.32,16.12-1,23.65,0.88c67,16.71,124.83,49.67,172.91,99.38c3.79,3.92,7.15,8.36,10.16,12.92
			c6.96,10.55,6.66,21.25-0.31,31.77c-8.87,13.39-20.72,23.94-33.33,33.49c-42.37,32.11-87.27,59.85-138.3,76.16
			c-8.81,2.82-18.66,4.07-27.89,3.56c-18.1-1-27.89-9.99-32.73-27.67c-6.13-22.39-9.45-45.27-10.76-68.41
			C381.53,525.84,382,515.83,382,505.85z"/>
	</g>
</g>
</svg>
